<svg width="1609" height="600" viewBox="0 0 1609 600" fill="none" xmlns="http://www.w3.org/2000/svg">
<path d="M273.587 0.295049C272.048 0.462843 267.27 1.05012 263.059 1.5535C227.263 5.66446 192.44 16.655 159.802 34.1055C129.676 50.1299 107.81 66.7415 84.3243 91.4072C30.9551 147.283 0.666626 222.119 0.666626 297.878C0.666626 316.167 2.04337 333.282 4.6349 348.048C15.8109 410.3 44.6416 465.084 91.0461 512.57C110.483 532.37 127.732 545.961 150.813 559.72C180.211 577.255 215.925 590.594 248.886 596.215C268.809 599.655 273.749 600.075 297.882 599.991C323.231 599.991 330.762 599.236 352.547 594.957C415.554 582.456 472.081 548.646 515.084 497.72C521.482 490.169 522.211 488.911 520.429 488.911C519.863 488.911 514.437 487.401 508.444 485.471C489.412 479.515 476.293 471.544 464.631 458.96C457.747 451.409 453.536 445.117 445.275 429.764C434.504 409.712 426.73 400.651 406.402 384.459C399.519 378.922 391.258 371.791 388.1 368.519C370.526 350.565 366.963 330.43 379.596 320.53C382.269 318.348 383.807 317.761 386.561 317.761C389.719 317.761 390.934 318.432 397.818 323.97C406.402 330.933 408.022 332.024 410.209 332.024C414.096 332.024 416.687 325.983 414.258 322.711C412.8 320.781 401.3 312.14 397.98 310.462C393.283 308.197 394.417 307.442 402.191 307.861C417.416 308.784 431.103 317.929 450.863 340.497C464.631 356.102 474.511 366.338 479.856 370.281C487.792 376.237 500.102 381.691 515.084 385.886C520.429 387.396 523.993 387.815 532.334 387.815C542.619 387.815 543.024 387.731 548.693 384.963C571.288 373.972 574.609 343.434 556.063 317.342C543.024 298.968 525.532 287.81 494.19 277.658C466.817 268.765 449.244 264.319 438.068 263.48L431.103 262.976L423.49 276.064L415.797 289.152L412.719 287.474C409.237 285.629 409.237 285.545 413.772 278.665C414.987 276.819 419.846 268.681 424.543 260.711C431.994 248.043 433.127 245.61 433.127 242.506C433.127 238.311 431.427 234.368 429.159 233.025C426.73 231.767 423.004 232.019 421.142 233.613C420.251 234.452 414.825 243.261 409.075 253.161C403.325 263.06 397.008 273.883 394.983 277.155L391.42 283.196L384.941 283.531C377.734 284.035 370.769 286.216 364.776 290.075C362.589 291.501 360.727 292.508 360.646 292.424C360.322 292.089 380.082 259.033 400.733 225.055C416.445 199.215 433.532 170.69 441.226 157.518C463.902 118.506 467.708 112.214 468.599 112.214C469.004 112.214 469.733 112.717 470.3 113.22C471.19 114.143 471.271 113.892 470.786 111.794C468.68 102.565 468.842 92.5817 471.271 84.5276C474.349 74.46 482.528 63.4695 489.979 59.3585L493.785 57.2611L493.299 52.479C491.923 38.5521 500.588 30.5819 514.356 33.1827C517.109 33.686 522.454 35.6996 526.26 37.6292C535.574 42.3274 545.535 52.5629 549.989 61.9593C556.063 74.7956 556.873 87.3801 552.257 97.6155C549.017 104.747 542.7 111.542 536.384 114.814C531.524 117.247 525.451 119.261 525.451 118.338C525.451 118.086 526.584 115.905 527.88 113.472C531.767 106.425 533.468 100.216 534.035 90.9877C534.683 80.7523 533.792 76.6413 529.824 70.5168C526.098 64.8118 520.025 60.617 513.06 58.8551C508.363 57.5967 506.743 57.5967 502.046 58.4357C481.314 62.2949 467.87 88.7225 475.321 110.871C476.374 114.059 477.669 116.828 478.074 116.912C478.56 117.08 480.423 114.395 482.285 111.039C484.877 106.425 485.93 103.488 486.578 99.0418C489.169 79.8294 500.264 69.2584 511.521 75.2151C516.947 78.0675 519.782 83.1853 519.782 89.9809C519.782 92.9173 520.348 94.5953 521.968 96.7766C523.993 99.5452 524.074 99.9647 523.021 102.817C522.13 105.334 515.57 117.667 514.437 118.841C514.275 119.009 513.465 118.59 512.655 117.835C510.144 115.486 507.229 116.073 503.908 119.513C498.078 125.805 496.377 132.433 499.616 135.789C500.912 137.131 501.965 137.467 503.666 137.047C506.743 136.46 508.444 133.02 488.764 166.327C485.282 172.284 481.476 178.66 480.342 180.338L478.317 183.442L476.616 181.764C475.645 180.757 473.215 179.08 471.19 177.821C469.166 176.647 467.465 175.556 467.303 175.472C466.655 175.052 471.109 167.502 494.109 130.251C501.236 118.674 508.768 106.425 510.873 102.985C515.732 95.1825 516.137 93.6724 514.518 90.4843C512.979 87.3801 511.035 86.2056 507.229 86.2056C503.423 86.2056 501.965 87.8835 494.109 101.223C488.602 110.62 482.285 121.023 461.148 155.588C457.99 160.706 454.993 165.572 454.589 166.327C453.779 167.67 453.536 167.67 450.539 165.992C446.166 163.559 444.789 163.726 441.631 166.998C436.934 171.864 438.311 173.71 452.564 181.848C463.416 187.973 471.19 193.342 471.19 194.517C471.19 194.936 469.895 197.369 468.275 199.886L465.279 204.5L462.768 202.906C450.215 194.936 435.233 186.882 433.127 186.882C430.698 186.882 426.649 191.328 426.649 193.929C426.649 195.356 427.539 196.698 429.321 198.124C430.86 199.383 432.318 200.305 432.723 200.305C434.099 200.305 458.233 214.904 458.233 215.826C458.233 216.498 453.293 224.971 452.159 226.23C451.835 226.481 435.719 217.42 428.106 212.722C425.92 211.464 422.842 210.121 421.142 209.87C418.307 209.45 417.821 209.618 415.878 212.051C411.504 217.42 413.043 219.602 426.487 226.649C430.617 228.83 436.286 232.102 438.958 233.948C441.712 235.71 444.222 237.22 444.708 237.22C445.113 237.22 444.708 238.479 443.817 239.905C442.927 241.415 440.902 244.939 439.282 247.623C437.663 250.392 436.367 252.909 436.367 253.244C436.367 254.167 443.008 256.265 453.779 258.698C462.687 260.711 465.683 260.963 491.032 261.55C515.165 262.138 519.377 262.389 524.884 263.983C541.081 268.43 550.07 277.155 563.352 301.401C573.151 319.271 582.302 343.098 584.975 357.612C587.404 370.449 587.323 388.738 584.894 400.148C584.246 403.168 587.566 406.692 591.049 406.692C597.041 406.692 599.957 397.967 600.605 378.083C601.334 352.578 595.665 329.255 580.925 298.045C570.721 276.148 558.169 258.194 548.531 251.399C543.429 247.875 535.169 243.932 529.014 242.254C523.588 240.744 519.053 240.408 498.482 239.737C485.201 239.318 474.106 238.814 473.863 238.562C473.62 238.395 474.187 237.136 475.078 235.794C475.969 234.535 483.743 221.699 492.409 207.437C500.993 193.09 511.116 176.479 514.841 170.438L521.563 159.532L526.989 158.525C530.229 157.937 535.25 156.092 539.866 153.743C559.464 143.675 572.422 122.533 575.661 95.602C577.767 78.1514 572.26 56.9255 561.489 41.3207C557.44 35.4479 547.802 25.6319 542.214 21.6888C530.229 13.2152 513.627 8.60085 502.37 10.5305C493.218 12.1245 488.278 14.6414 482.528 20.682C476.212 27.226 472.486 34.2733 468.437 47.1935C462.282 66.9931 460.177 79.6616 460.986 92.2461L461.472 100.468L457.828 106.341L454.103 112.298L451.43 110.62C449.972 109.613 448.353 108.858 447.867 108.858C447.381 108.858 443.656 114.647 439.525 121.61C435.395 128.657 425.515 145.605 417.497 159.196C409.48 172.787 401.624 186.211 399.924 188.979C389.476 206.346 386.156 212.387 386.156 214.065C386.156 215.155 386.885 216.665 387.776 217.504C388.667 218.343 389.395 219.602 389.395 220.189C389.395 220.86 387.209 225.307 384.536 230.005L379.758 238.562L373.441 240.492C360.403 244.435 351.818 251.818 345.501 264.571C341.452 272.625 334.568 289.907 331.329 300.143C328.576 308.868 327.928 320.11 329.871 326.57C331.167 330.681 331.167 331.604 330.276 333.198C329.709 334.121 325.66 341.001 321.368 348.384C316.995 355.767 311.569 364.995 309.22 368.938L305.009 375.986L305.981 380.852C307.196 386.389 306.791 387.312 300.312 394.527C296.505 398.722 295.696 400.651 293.752 411.222C293.023 415.333 284.601 461.728 283.791 466.427C283.548 467.769 283.548 468.776 283.791 468.776C284.277 468.776 293.266 462.4 302.336 455.604C305.495 453.339 315.294 445.956 324.202 439.412C333.111 432.784 340.642 427.163 340.966 426.911C341.29 426.576 342.505 422.968 343.639 418.857C346.149 410.132 346.716 409.209 349.875 409.209C352.952 409.209 355.139 406.692 360.403 397.128C363.885 390.835 369.554 381.103 370.445 380.013C370.526 379.845 373.522 382.194 377.005 385.214C380.487 388.319 384.131 391.003 385.184 391.255C386.156 391.591 386.966 392.094 386.966 392.43C386.966 393.352 375.142 404.846 369.23 409.628L364.128 413.823L367.206 414.494C368.987 414.914 374.332 415.082 379.191 414.83L388.1 414.494L380.811 421.71C376.843 425.653 369.959 431.945 365.586 435.636C361.213 439.328 356.677 443.187 355.463 444.278L353.357 446.207L368.501 445.872L383.646 445.536L380.973 448.724C377.167 453.339 361.618 467.517 352.385 474.816C345.097 480.605 344.773 480.941 346.959 481.193C353.843 482.031 394.821 477.669 400.328 475.488C401.462 475.068 402.353 474.9 402.353 475.152C402.353 475.32 400.571 478.004 398.304 480.941C396.117 483.877 394.255 486.478 394.255 486.646C394.255 486.981 420.818 484.213 424.867 483.458C426.244 483.206 427.458 483.29 427.458 483.709C427.458 484.548 419.117 492.519 406.645 503.593C402.029 507.62 398.304 511.144 398.304 511.395C398.304 512.486 437.906 508.711 446.409 506.865C448.596 506.362 448.434 506.697 443.656 512.486C440.821 515.926 438.149 519.03 437.663 519.366C436.853 520.037 443.575 519.701 452.969 518.527L457.018 518.107L450.134 523.393C441.064 530.44 425.191 540.256 412.719 546.716L402.596 552.002L395.793 547.807C392.068 545.458 388.667 543.864 388.181 544.283C387.776 544.619 383.565 546.632 378.948 548.813L370.445 552.673L359.593 546.129C353.681 542.437 348.741 539.165 348.66 538.746C348.579 538.326 352.061 536.061 356.354 533.796C360.646 531.447 364.371 529.433 364.614 529.182C364.776 528.93 361.294 526.749 356.677 524.316L348.417 519.785L340.075 523.644C335.459 525.742 331.491 527.504 331.167 527.504C330.924 527.504 326.794 524.903 322.016 521.799L313.35 516.01L322.421 512.402C327.442 510.473 331.734 508.543 332.139 508.291C332.463 507.956 329.628 505.942 325.903 503.761L319.019 499.902L310.759 502.754C306.143 504.348 301.77 505.69 300.879 505.69C298.854 505.69 285.734 496.126 286.625 495.287C286.787 495.119 290.917 493.693 295.777 492.099L304.604 489.163L298.449 485.22L292.375 481.276L284.763 483.374C280.632 484.548 276.583 485.555 275.692 485.555C273.506 485.555 263.464 477.082 264.84 476.326C265.407 475.991 268.728 475.068 272.21 474.229C275.692 473.474 278.446 472.551 278.284 472.216C278.122 471.88 276.502 470.118 274.558 468.356L271.076 465.084L264.192 466.511C260.386 467.266 256.823 467.685 256.175 467.35C255.527 467.098 253.907 465.336 252.531 463.49C249.615 459.379 249.777 459.295 258.442 457.869C261.844 457.282 264.678 456.611 264.678 456.359C264.678 456.023 263.221 454.262 261.439 452.416C258.199 448.976 258.038 448.976 254.312 449.563C252.207 449.899 249.129 450.235 247.428 450.235C244.432 450.318 244.27 450.151 242.245 445.62C241.112 443.019 240.545 440.67 240.869 440.251C241.274 439.915 244.027 439.412 247.024 439.244C250.02 439.076 252.692 438.741 252.854 438.489C253.097 438.237 252.935 436.643 252.45 434.965L251.64 431.861H245.566H239.492L239.735 427.834L239.978 423.891L244.837 423.639C250.344 423.304 251.721 422.465 251.721 419.277C251.721 417.179 251.397 416.927 247.59 416.424L243.46 415.837L245.485 413.152C247.105 410.971 248.238 410.383 251.316 409.964C253.745 409.712 255.608 408.957 256.256 407.95C257.957 405.601 257.633 405.014 254.798 405.014C252.692 405.014 254.069 404.007 262.411 399.645C267.999 396.708 276.178 393.101 280.47 391.507C284.763 389.913 289.055 387.899 289.946 386.892C290.837 385.969 292.456 382.949 293.509 380.264C295.372 375.566 295.372 375.147 294.076 374.224C293.347 373.637 291.889 373.133 290.837 373.133C289.784 373.133 288.974 372.714 288.974 372.294C288.974 371.791 290.756 371.455 292.942 371.455C296.829 371.455 296.91 371.455 297.477 368.435C297.72 366.757 297.801 365.163 297.558 364.911C296.424 363.821 253.097 376.153 233.742 383.117C227.182 385.466 220.784 387.396 219.489 387.396C218.112 387.396 216.897 387.899 216.654 388.654C215.844 390.584 209.932 393.268 206.207 393.268C202.563 393.268 198.675 395.282 199.485 396.708C199.809 397.128 200.7 397.463 201.591 397.463C203.939 397.463 203.454 398.806 200.214 400.735C197.866 402.162 196.57 402.413 193.087 401.994C189.119 401.49 188.714 401.658 187.094 403.756C186.123 405.014 185.475 406.356 185.718 406.692C185.88 407.028 187.904 407.531 190.172 407.867C194.383 408.454 194.788 409.041 193.411 411.81C192.682 413.236 191.63 413.404 185.07 413.404H177.538L176.081 416.424C175.352 418.102 174.947 419.696 175.19 420.032C175.514 420.283 178.753 420.703 182.397 420.787L189.119 421.122L188.633 424.143L188.147 427.247L179.239 427.666C170.655 428.086 170.412 428.17 169.845 430.183C168.225 436.14 168.225 436.056 178.024 436.056H186.933V440.586V445.201L182.721 445.62C180.373 445.872 175.919 446.291 172.922 446.627C167.739 447.046 167.415 447.214 167.82 448.892C168.063 449.899 168.306 451.829 168.306 453.171V455.604L177.295 455.017C182.235 454.681 186.69 454.262 187.256 454.01C188.147 453.674 190.172 458.456 190.172 460.973C190.172 461.477 186.771 462.316 182.721 462.819C178.591 463.406 174.056 464.078 172.679 464.245L170.169 464.749L171.383 469.279C172.76 474.481 172.274 474.313 182.478 472.551C193.897 470.621 194.383 470.705 196.003 474.816C196.813 476.746 197.299 478.424 197.137 478.592C196.651 479.095 181.264 482.199 179.158 482.199C176.647 482.199 176.647 483.542 179.401 489.331C180.778 492.267 182.073 493.945 183.045 493.945C183.774 493.945 188.876 493.022 194.383 491.847C199.89 490.673 204.425 489.75 204.506 489.75C204.587 489.75 206.531 492.267 208.799 495.371L212.929 500.992L202.968 503.761C197.461 505.271 192.521 506.529 191.873 506.529C190.415 506.529 191.225 508.375 195.274 514.164C197.137 516.849 199.242 519.114 199.89 519.114C200.538 519.114 205.964 517.772 211.876 516.178L222.647 513.241L225.239 515.255C226.696 516.429 229.612 519.282 231.798 521.715L235.686 526.077L229.369 528.007C217.464 531.699 213.334 533.125 213.091 533.88C212.929 534.299 215.682 537.571 219.165 541.179L225.481 547.723L237.143 543.528C243.541 541.179 249.129 539.585 249.615 539.837C252.935 541.85 267.837 555.609 267.351 556.113C267.027 556.448 262.897 558.378 258.199 560.475C244.837 566.432 245.161 566.18 246.214 567.523C246.7 568.11 246.943 568.865 246.7 569.033C245.485 570.291 209.527 558.797 195.031 552.505C185.475 548.31 165.633 537.907 158.588 533.376L153.324 530.021H162.637H171.95L163.042 523.98C146.845 513.073 125.87 495.623 119.715 487.904L117.285 484.884L136.965 485.303L156.563 485.723L150.489 481.36C137.208 471.796 115.342 451.829 110.725 445.117L109.106 442.768L127.975 443.271L146.845 443.691L144.496 441.761C131.863 431.442 127.894 427.834 120.606 420.535C112.426 412.397 100.278 398.638 100.278 397.547C100.278 397.296 107.081 397.044 115.504 397.044C123.845 397.044 132.43 396.708 134.535 396.373L138.422 395.701L131.377 390.5C123.035 384.375 110.483 372.21 104.004 364.072C101.493 360.884 99.4685 358.116 99.4685 357.864C99.4685 357.696 101.655 357.696 104.328 357.864C108.944 358.2 124.088 356.773 125.465 355.85C125.87 355.599 119.634 348.719 111.616 340.497C103.599 332.275 97.039 325.228 97.039 324.809C97.039 324.389 101.088 324.137 106.109 324.305L115.261 324.473L112.831 322.292C98.4157 309.204 95.0953 306.016 93.0707 303.499L90.8031 300.562L98.9826 300.311C103.437 300.143 107.243 299.891 107.405 299.723C107.567 299.556 105.218 296.451 102.06 292.844C94.6904 284.37 87.8067 274.554 81.0849 262.557C78.0885 257.355 75.4159 252.909 75.173 252.741C74.849 252.489 72.8244 255.426 70.6378 259.285C62.6203 273.464 56.8703 281.769 45.1275 296.2C43.7507 297.962 42.6979 299.556 42.9409 299.723C43.1029 299.891 46.8282 300.227 51.1204 300.311C55.4126 300.478 58.976 300.814 58.976 301.066C58.976 301.821 47.881 312.643 40.9163 318.6L34.5994 324.053L43.5888 324.305L52.5781 324.557L48.6908 329.255C44.2366 334.624 31.522 346.622 30.8741 345.951C30.6311 345.783 29.7403 341.504 28.9305 336.47C26.8248 324.389 26.015 292.424 27.3107 276.652C28.3636 264.151 30.5502 250.056 33.1417 238.982C35.2473 229.837 40.3494 211.799 40.9972 211.044C41.6451 210.457 46.1803 211.212 73.1484 216.33C104.004 222.203 134.94 229.25 201.105 245.61C221.837 250.728 271.967 259.285 309.139 264.151C320.801 265.661 323.393 265.829 323.635 264.906C324.931 260.963 331.734 248.295 334.811 244.016C339.671 237.304 347.85 230.341 355.544 226.314L361.78 223.125L354.329 217.84C347.688 213.226 334.083 202.655 308.815 182.687C304.361 179.163 300.231 175.975 299.664 175.64C299.016 175.22 295.696 177.821 290.108 183.107C285.491 187.637 281.442 191.077 281.199 190.825C280.794 190.406 268.485 175.388 250.425 153.155L241.031 141.661L235.686 146.024C232.689 148.373 227.992 152.232 225.239 154.582C217.626 161.042 214.953 163.223 203.049 172.787L192.116 181.596L182.802 169.012C162.637 141.578 156.887 134.027 156.158 134.027C155.753 134.027 148.95 138.473 141.014 143.843C109.511 165.237 70.7188 190.238 69.0991 190.238C66.9935 190.238 52.1732 186.63 51.3633 185.959C49.8246 184.533 66.6695 155.337 79.4652 137.383C121.092 78.9065 186.123 39.2232 258.199 28.3166C292.375 23.115 326.875 24.793 359.917 33.2666C387.533 40.3978 411.342 50.7171 434.909 65.8186C438.877 68.3355 442.279 70.2651 442.441 70.1812C442.603 70.0134 443.332 67.4126 444.06 64.4762C444.789 61.5398 446.49 56.0865 447.786 52.3112C449.082 48.6197 450.134 45.3477 450.134 44.9282C450.134 44.0054 437.825 36.6224 426.487 30.7497C398.466 16.2355 369.068 6.92291 335.135 1.80519C327.037 0.54674 280.794 -0.543921 273.587 0.295049ZM163.285 166.914C176.323 185.204 199.89 221.028 206.774 233.025C209.203 237.22 175.19 206.598 157.211 188.308L148.06 179.08L143.848 183.107C141.5 185.288 137.046 189.818 133.968 193.09C130.891 196.362 128.947 198.124 129.595 196.95C142.391 174.801 153.972 155.84 154.781 155.84C155.105 155.84 158.912 160.874 163.285 166.914ZM241.193 164.146C265.569 193.51 305.495 245.61 303.551 245.61C303.146 245.61 302.579 245.274 302.336 244.771C302.093 244.351 297.234 240.073 291.565 235.374C280.146 225.978 268.809 216.078 262.897 210.457C258.928 206.766 258.28 206.598 259.9 209.702C261.115 212.051 267.837 229.669 267.513 229.669C266.946 229.669 251.316 208.947 244.432 199.047C240.302 193.006 236.819 187.973 236.657 187.805C236.495 187.637 233.256 190.49 229.45 194.097C225.643 197.705 220.622 202.403 218.355 204.5L214.225 208.276L219.327 198.208C226.939 183.107 238.277 161.713 238.763 161.713C239.006 161.713 240.059 162.803 241.193 164.146ZM306.791 199.131C311.569 203.41 334.892 226.985 338.213 230.844C339.104 231.851 337.646 231.347 333.921 229.25C323.635 223.377 312.055 216.581 309.706 214.987L307.438 213.393L310.759 220.105C312.541 223.713 315.213 228.83 316.59 231.347C319.505 236.465 319.019 236.129 311.569 227.152C305.738 220.189 302.093 215.407 297.639 208.947L294.643 204.668L297.639 199.55C299.34 196.782 300.879 194.433 301.122 194.433C301.365 194.433 303.875 196.53 306.791 199.131ZM470.705 284.202C517.028 299.304 524.803 303.331 539.704 319.691C562.542 344.776 558.331 374.811 532.01 374.811C519.782 374.811 495.243 365.331 486.416 357.193L483.014 354.089L489.979 349.39C497.268 344.524 498.725 342.846 498.725 339.239C498.725 337.058 495.405 333.702 493.137 333.702C492.409 333.702 489.574 335.128 486.902 336.89C484.148 338.652 480.018 340.917 477.831 342.007L473.701 344.021L470.057 339.91C468.032 337.645 466.412 335.128 466.331 334.289C466.331 332.527 468.923 321.62 471.271 313.65C472.081 310.714 472.81 307.358 472.81 306.016C472.81 302.744 470.381 300.814 466.655 301.15C463.983 301.401 463.254 301.905 461.715 304.673C460.743 306.519 459.124 311.385 458.071 315.412C457.099 319.439 456.046 322.795 455.803 322.795C455.56 322.795 452.726 319.943 449.405 316.503C446.166 313.063 441.145 308.449 438.311 306.267C434.666 303.499 433.208 301.905 433.532 300.982C433.856 300.311 437.177 294.522 440.983 288.146C446.166 279.42 448.272 276.652 449.163 277.071C449.891 277.323 459.61 280.511 470.705 284.202ZM399.114 295.948C400.895 296.535 400.733 296.619 397.899 296.703C373.441 297.458 355.706 318.181 359.512 341.672C359.998 344.86 360.727 348.384 361.132 349.39C362.67 353.669 360.808 350.901 357.973 344.776C355.625 339.574 354.977 337.141 354.734 332.191C353.924 315.915 363.075 302.156 378.462 296.619C382.755 295.109 395.226 294.69 399.114 295.948ZM344.125 342.511C345.097 345.196 346.878 349.139 348.093 351.236L350.361 354.928L347.04 360.465C345.259 363.485 343.234 366.673 342.505 367.512C341.371 368.938 341.371 369.19 342.829 370.281C346.716 373.301 356.192 378.083 357.244 377.664C357.892 377.412 359.107 375.902 359.917 374.308C361.213 371.875 361.537 371.623 362.589 372.63C363.48 373.637 363.561 374.308 362.751 376.237C360.322 382.194 360.808 382.278 347.607 374.727C331.41 365.499 322.988 360.465 322.988 360.045C322.988 359.794 326.146 354.256 330.114 347.712C334.002 341.085 338.051 333.869 339.185 331.52L341.209 327.325L341.776 332.443C342.1 335.212 343.153 339.742 344.125 342.511ZM49.5817 358.2C48.3669 360.297 41.2402 369.442 39.2966 371.287C37.5149 373.049 37.2719 373.133 36.867 371.707C36.705 370.868 35.7332 367.512 34.8424 364.156L33.2227 358.116L38.5677 357.78C41.5641 357.612 45.3704 357.444 47.0711 357.361C49.3387 357.277 49.9866 357.444 49.5817 358.2ZM337.646 377.915C347.202 383.788 355.139 388.654 355.382 388.822C355.787 389.241 351.818 397.128 349.713 399.98L348.336 401.91L336.269 394.527C315.942 382.026 312.46 379.761 312.46 378.754C312.541 377.328 318.857 367.26 319.667 367.26C320.072 367.26 328.171 372.043 337.646 377.915ZM287.192 377.16C291.727 378.503 292.213 378.838 291.079 379.761C289.946 380.768 288.65 380.6 282.9 379.006C279.094 377.915 276.016 376.741 276.016 376.405C276.016 375.147 281.766 375.566 287.192 377.16ZM276.259 382.194L281.766 383.788L278.608 384.711C275.935 385.55 274.558 385.466 270.266 384.124C267.432 383.285 264.03 382.278 262.735 381.942C260.791 381.523 260.548 381.271 261.52 380.6C263.059 379.509 269.456 380.181 276.259 382.194ZM259.171 385.969C262.654 387.06 265.65 388.151 265.974 388.402C266.217 388.738 264.678 389.241 262.492 389.577C258.766 390.164 253.583 389.409 246.457 387.228L243.217 386.305L246.457 385.214C250.911 383.788 252.045 383.872 259.171 385.969ZM317.481 391.674C320.72 393.52 324.202 395.785 325.255 396.624L327.118 398.218L323.797 402.833L320.477 407.363L315.78 404.762C313.269 403.252 309.463 401.155 307.357 399.98C305.252 398.89 303.551 397.631 303.551 397.212C303.551 396.792 304.847 394.946 306.386 393.017C307.924 391.171 309.22 389.325 309.22 388.906C309.22 387.48 311.812 388.319 317.481 391.674ZM221.756 391.087C221.756 391.255 221.189 391.674 220.46 391.926C219.813 392.178 219.489 392.094 219.732 391.591C220.217 390.752 221.756 390.416 221.756 391.087ZM242.569 392.513L251.64 394.359L249.615 396.037C247.428 397.799 246.7 397.799 232.527 395.701L225.077 394.611L228.478 392.765C230.341 391.674 232.284 390.835 232.689 390.835C233.175 390.752 237.548 391.507 242.569 392.513ZM218.517 392.765C218.517 392.933 217.545 393.688 216.33 394.443L214.063 395.869L216.006 394.191C217.869 392.43 218.517 392.094 218.517 392.765ZM256.499 396.121C256.337 396.289 253.907 398.218 251.154 400.316C242.974 406.524 237.386 414.83 235.605 423.304C229.936 450.906 254.636 481.78 315.375 522.973C324.688 529.265 334.326 535.809 336.755 537.571C339.185 539.249 345.421 543.192 350.523 546.38C363.48 554.351 374.98 562.069 374.494 562.489C373.603 563.412 319.181 527.839 298.854 512.989C265.974 488.911 243.865 465.672 236.9 447.634C230.584 431.274 233.256 417.179 245.161 404.93C248.157 401.826 251.802 398.554 253.34 397.547C255.932 395.953 257.309 395.282 256.499 396.121ZM207.827 400.819C201.915 406.273 198.027 412.481 195.355 420.619C193.411 426.659 193.249 428.086 193.654 436.895C194.059 448.221 196.246 456.107 202.401 469.027C211.552 488.156 226.048 506.362 248.886 527.504C261.034 538.662 283.224 557.119 295.291 566.096C303.632 572.305 305.738 574.15 305.009 574.905C304.604 575.325 282.576 558.294 268.728 546.8C250.749 531.866 229.693 511.312 218.922 498.14C201.591 476.998 190.172 447.969 192.116 430.099C193.411 418.27 200.214 405.266 208.232 399.141C213.091 395.45 212.929 396.037 207.827 400.819ZM49.2577 399.141C48.2859 400.987 46.8282 400.651 46.8282 398.638C46.8282 397.967 47.557 397.463 48.4479 397.463C49.9056 397.463 49.9866 397.715 49.2577 399.141ZM230.907 401.406C236.091 402.162 240.383 403.001 240.383 403.336C240.383 403.672 239.816 404.427 239.168 405.014C238.277 405.769 235.119 405.769 224.591 404.93C217.221 404.343 211.228 403.588 211.228 403.336C211.228 402.162 215.925 400.064 218.517 399.98C220.055 399.98 225.643 400.568 230.907 401.406ZM308.248 408.034C308.653 408.202 302.417 427.331 301.689 428.086C301.203 428.589 301.122 428.337 301.365 427.247C301.77 425.821 304.361 407.531 304.361 406.273C304.361 406.021 305.171 406.273 306.224 406.86C307.196 407.447 308.086 407.95 308.248 408.034ZM230.503 411.642C233.904 412.145 233.904 412.145 232.689 413.991C231.474 415.837 231.069 415.837 220.703 415.417C214.791 415.166 208.475 414.83 206.612 414.578C203.292 414.159 203.211 414.075 204.182 411.978L205.073 409.796L216.087 410.467C222.08 410.803 228.559 411.306 230.503 411.642ZM228.559 422.632C229.45 423.639 227.992 426.659 226.372 427.163C225.4 427.415 218.841 427.666 211.876 427.666H199.08V425.317C199.08 423.975 199.323 422.632 199.728 422.297C200.376 421.542 227.83 421.961 228.559 422.632ZM228.073 437.902C228.397 441.593 229.126 441.341 211.309 442.852C198.351 443.942 198.27 443.942 198.27 438.405V435.301L206.612 434.965C211.147 434.797 217.788 434.714 221.351 434.714L227.83 434.797L228.073 437.902ZM231.312 450.738C231.879 451.912 232.284 453.339 232.284 453.926C232.284 454.597 227.749 455.604 218.679 456.862C211.228 457.869 204.668 458.792 204.182 458.708C203.292 458.708 200.376 452.919 200.943 452.332C201.024 452.164 205.721 451.493 211.228 450.822C216.816 450.067 222.485 449.396 223.781 449.228C229.693 448.473 230.422 448.557 231.312 450.738ZM239.411 465.839C240.383 467.433 241.193 469.027 241.193 469.447C241.193 470.034 215.115 475.488 212.281 475.488C211.309 475.488 208.313 470.957 207.827 468.86C207.665 467.937 210.418 467.098 220.136 465.336C237.143 462.316 237.143 462.316 239.411 465.839ZM254.96 484.297C257.39 486.814 259.171 488.995 259.009 489.163C258.766 489.414 251.559 491.344 242.974 493.525L227.344 497.469L225.239 495.539C222.809 493.19 218.517 487.317 218.517 486.226C218.517 485.891 219.327 485.555 220.379 485.471C221.351 485.471 227.425 484.213 233.904 482.703C249.939 478.843 249.615 478.843 254.96 484.297ZM275.854 503.593C280.713 507.368 282.981 509.717 282.414 510.221C282.252 510.389 274.882 512.989 266.055 516.01L250.101 521.547L244.027 515.926C240.626 512.906 238.034 510.053 238.196 509.55C238.439 508.795 266.865 499.985 269.699 499.902C270.428 499.818 273.182 501.496 275.854 503.593ZM307.034 527.671C314.484 532.789 315.618 533.796 314.322 534.551C312.541 535.558 285.087 547.639 283.143 548.226C282.252 548.478 278.608 546.045 272.777 541.347C267.837 537.32 263.949 533.88 264.111 533.712C264.273 533.544 270.266 531.279 277.312 528.678C284.358 526.077 291.484 523.477 293.023 522.889C294.562 522.218 296.424 521.715 297.072 521.715C297.72 521.631 302.174 524.316 307.034 527.671ZM343.963 552.421C355.544 559.804 355.544 558.965 343.639 564.754C332.787 570.039 325.579 572.64 319.91 573.228L314.808 573.731L306.791 567.606C302.336 564.251 298.854 561.146 298.935 560.811C299.178 560.056 309.787 555.022 319.667 550.911C322.907 549.569 326.956 547.723 328.576 546.8C330.195 545.877 332.058 545.374 332.706 545.625C333.354 545.877 338.456 548.897 343.963 552.421ZM290.189 572.556C291.565 573.479 290.837 573.647 284.682 573.647C280.794 573.647 277.636 573.395 277.636 572.976C277.636 572.64 279.175 571.55 281.118 570.627C284.763 568.865 285.087 568.949 290.189 572.556Z" fill="black"/>
<path d="M324.121 51.4722C322.178 57.0094 321.125 58.6874 318.048 60.9526C316.185 62.3788 314.16 63.5534 313.512 63.5534C312.945 63.5534 312.46 63.889 312.46 64.3924C312.46 64.8118 313.107 65.2313 313.836 65.2313C316.59 65.2313 321.287 69.594 323.312 73.8727L325.255 78.0676L325.822 75.3829C326.551 71.7753 331.734 66.2381 334.973 65.5669C338.051 64.8957 338.294 63.889 335.621 63.2178C332.382 62.3788 328.576 58.4357 326.551 53.9891C325.012 50.5494 324.607 50.046 324.121 51.4722Z" fill="black"/>
<path d="M233.823 58.0162C217.221 62.6305 208.556 81.8429 216.087 97.6995C221.027 108.019 230.503 114.059 242.002 114.227C251.721 114.395 259.9 109.613 265.569 100.552C268.728 95.5181 268.485 95.0148 264.921 98.7901C262.006 101.727 256.661 103.824 251.802 103.824C248.238 103.824 242.002 101.055 238.601 97.9512C228.721 88.9742 229.288 73.2016 239.654 65.483C243.946 62.2949 249.372 60.9526 254.231 61.8755C257.066 62.4627 257.39 62.3788 256.418 61.3721C254.474 59.3585 246.295 56.8416 241.84 56.9255C239.492 56.9255 235.848 57.4289 233.823 58.0162Z" fill="black"/>
<path d="M410.857 81.759C409.156 85.9539 406.726 88.6386 402.839 90.4004L399.681 91.9106L403.325 93.5885C407.131 95.2665 409.885 98.5384 411.423 103.069L412.314 105.67L413.367 102.565C414.582 98.7901 418.955 93.8402 421.79 93.169C425.272 92.3301 425.191 91.9945 420.818 89.7293C417.254 87.8835 416.121 86.709 414.339 83.0175L412.152 78.4871L410.857 81.759Z" fill="black"/>
<path d="M166.362 91.7428C165.633 95.6021 160.774 101.139 156.158 103.237C152.676 104.831 152.595 104.999 154.538 105.502C158.831 106.76 161.989 109.109 164.338 112.885C165.633 114.982 166.686 117.415 166.686 118.254C166.686 119.093 167.091 119.764 167.496 119.764C167.982 119.764 168.306 119.177 168.306 118.338C168.306 113.64 176.485 105.586 181.345 105.418C182.883 105.418 182.397 104.999 179.239 103.404C174.38 100.888 170.25 96.2732 168.954 91.9106C167.82 87.9674 167.01 87.8836 166.362 91.7428Z" fill="black"/>
<path d="M340.075 94.2597C333.516 96.1055 328.414 99.2936 323.069 104.999C315.537 113.137 312.46 121.358 312.46 132.936C312.46 151.813 325.984 167.837 344.692 171.025C360.16 173.71 375.79 165.656 382.998 151.31L385.508 146.192L382.917 149.38C381.459 151.142 378.462 153.575 376.114 154.833C372.551 156.763 371.012 157.099 364.695 157.099C358.378 157.099 356.758 156.763 352.547 154.749C346.716 151.897 341.452 146.863 338.537 141.158C336.593 137.467 336.35 136.04 336.35 128.993C336.35 121.526 336.512 120.687 339.104 115.737C344.287 105.838 351.899 101.139 362.913 101.139C366.558 101.055 370.607 101.559 371.984 102.062C374.251 103.069 374.332 102.985 372.955 101.475C370.931 99.1258 363.966 95.4343 359.107 94.092C353.843 92.5818 345.663 92.6657 340.075 94.2597Z" fill="black"/>
<path d="M203.13 127.651C203.13 129.496 199.971 133.104 196.894 134.782L193.978 136.292L196.327 137.131C199.08 138.138 203.13 142.081 203.13 143.759C203.13 145.772 204.263 145.017 205.64 142.165C206.369 140.571 208.151 138.809 210.013 137.886L213.091 136.292L210.175 134.698C208.313 133.775 206.531 131.845 205.559 129.832C203.858 126.308 203.13 125.721 203.13 127.651Z" fill="black"/>
<path d="M276.016 128.322C276.016 130.252 272.21 134.698 269.294 136.292L266.703 137.634L268.728 138.39C271.4 139.396 274.397 142.333 275.368 144.85L276.097 146.947L277.555 144.43C279.418 141.326 281.523 139.396 284.034 138.641C285.815 138.054 285.815 137.97 282.657 136.04C280.632 134.782 278.851 132.768 277.798 130.503C276.826 128.49 276.097 127.567 276.016 128.322Z" fill="black"/>
<path d="M550.151 171.025C547.479 172.787 542.7 175.22 539.461 176.479L533.63 178.66L535.736 183.442C540.028 193.174 545.454 207.856 548.936 219.182L552.5 230.928L557.764 234.452C560.76 236.381 565.214 239.905 567.725 242.254C572.26 246.449 581.411 258.53 584.084 263.899C585.542 266.92 586.189 267.339 585.785 265.074C585.623 264.319 584.894 259.872 584.165 255.258C581.33 237.472 574.285 212.638 566.834 193.594C561.813 181.093 555.901 167.586 555.415 167.67C555.172 167.67 552.824 169.18 550.151 171.025Z" fill="black"/>
<path d="M518.567 201.816C517.271 203.997 514.032 208.863 511.521 212.722C508.93 216.498 506.824 219.77 506.824 219.937C506.824 220.105 510.063 220.273 514.113 220.357C521.806 220.441 532.982 222.37 537.355 224.216C540.514 225.558 540.757 224.803 538.165 221.531C537.112 220.273 533.063 214.484 529.176 208.695C525.289 202.906 521.806 198.124 521.563 198.04C521.239 197.872 519.944 199.55 518.567 201.816Z" fill="black"/>
<path d="M210.985 274.638C210.661 274.974 210.418 276.903 210.418 278.917V282.524H217.707C221.756 282.524 224.996 282.86 224.996 283.196C224.996 283.531 210.985 283.699 193.897 283.531C160.612 283.112 155.024 283.531 147.574 287.055C142.553 289.488 138.018 294.186 136.398 298.8C134.616 303.75 129.433 342.679 129.433 350.984V357.864L134.535 358.451C137.289 358.787 145.792 359.961 153.324 361.052C160.936 362.227 170.412 363.317 174.542 363.653L181.992 364.156L182.397 361.304C182.64 359.71 182.964 349.39 183.207 338.316C183.693 315.076 184.746 302.828 186.528 299.304C187.176 297.962 187.742 296.703 187.742 296.451C187.742 296.2 177.214 295.864 164.257 295.78C143.929 295.528 140.933 295.361 141.581 294.27C142.148 293.263 145.873 293.095 166.281 293.347C182.721 293.515 190.577 293.263 191.306 292.676C192.683 291.418 204.506 290.411 229.045 289.236C239.978 288.733 257.876 287.726 268.971 287.139C285.653 286.132 289.46 286.048 291.646 286.971C294.481 288.229 296.425 287.978 265.812 289.823L256.742 290.327L257.147 318.097C257.39 333.366 257.714 346.034 257.876 346.118C257.957 346.286 262.168 345.447 267.108 344.273C277.393 341.756 277.069 341.84 276.664 343.014C276.34 343.937 256.013 349.642 255.365 348.887C255.122 348.719 254.96 335.547 254.96 319.691V290.914H247.914C236.576 290.914 198.27 293.347 194.95 294.27C191.387 295.277 188.876 298.213 187.661 302.828C186.528 307.358 185.394 329.842 185.313 349.055V364.744L183.126 365.666C181.75 366.254 178.348 366.338 174.38 366.002C166.929 365.415 141.176 361.639 136.317 360.549C131.458 359.374 128.623 359.542 128.623 360.968C128.623 361.639 129.271 362.562 130.162 362.982C132.349 364.24 169.602 369.61 180.535 370.281L189.929 370.868L191.306 366.589C193.087 361.22 195.193 358.451 199.161 356.354C203.211 354.172 206.126 354.256 210.58 356.689C213.01 358.032 214.629 358.451 215.358 357.948C216.006 357.528 219.246 356.605 222.566 355.85C225.886 355.095 228.883 354.256 229.207 353.921C229.612 353.585 229.936 341.42 230.017 326.738C230.26 295.025 229.531 297.206 240.221 297.206H247.267L247.752 305.177C248.481 316.503 248.562 349.055 247.833 350.145C247.509 350.649 241.274 352.662 233.904 354.676C226.534 356.605 219.165 358.619 217.545 359.039C214.791 359.794 214.548 360.129 215.034 362.143C215.277 363.317 215.601 364.492 215.763 364.66C215.925 364.911 240.545 358.703 267.513 351.656C275.935 349.474 277.96 348.384 277.312 346.622C276.664 344.86 278.446 339.323 280.632 336.386C283.467 332.527 286.058 331.017 289.946 331.017C292.618 331.101 293.833 331.688 296.182 334.037C297.801 335.715 299.421 337.057 299.745 337.057C300.069 337.057 300.15 327.242 299.988 315.328C299.583 292.508 299.34 290.746 295.696 287.39C291.727 283.699 289.46 283.363 262.897 283.196C248.967 283.112 239.897 282.86 242.812 282.608L248.076 282.105V278.33V274.554L229.774 274.303C219.732 274.219 211.309 274.386 210.985 274.638ZM291.079 302.324C291.808 306.351 290.999 312.643 289.622 314.07C288.974 314.741 286.868 315.412 284.844 315.496L281.28 315.664L281.037 308.616C280.875 304.757 280.956 301.066 281.199 300.395C281.523 299.639 283.143 299.304 286.058 299.304H290.513L291.079 302.324ZM278.446 308.029C278.446 312.392 278.122 316.251 277.636 316.503C277.231 316.754 275.044 317.258 272.777 317.51C267.513 318.181 266.379 316.754 266.298 309.791C266.298 300.898 266.46 300.646 275.449 300.311L278.446 300.143V308.029ZM178.753 305.68C179.158 306.1 177.295 327.158 176.809 327.745C176.243 328.248 138.827 325.228 138.179 324.641C137.856 324.305 138.179 319.523 138.908 314.07L140.204 304.086L159.317 304.673C169.845 305.009 178.591 305.428 178.753 305.68ZM217.545 315.412C217.788 327.409 217.95 327.158 211.471 328.164L207.989 328.668L207.827 320.11C207.746 315.328 207.584 310.294 207.584 308.952C207.341 305.093 208.475 304.254 213.172 304.505L217.302 304.757L217.545 315.412ZM205.397 316.251C205.478 322.376 205.235 327.913 204.83 328.584C204.506 329.171 202.401 329.926 200.295 330.178C197.137 330.514 196.165 330.346 195.274 329.087C194.14 327.409 193.897 319.691 194.707 311.217C195.274 305.596 195.274 305.596 202.32 305.261L205.235 305.177L205.397 316.251ZM154.134 339.574C158.588 339.994 163.609 340.581 165.39 340.917L168.468 341.42L168.144 347.629C167.901 351.068 167.577 354.005 167.415 354.256C167.172 354.424 161.746 353.837 155.348 352.998C148.87 352.075 143.363 351.32 143.039 351.32C142.634 351.32 142.391 348.467 142.391 345.028C142.391 337.729 141.176 338.316 154.134 339.574ZM138.341 342.511C138.341 345.783 136.641 347.125 134.373 345.699C131.458 343.769 132.834 339.574 136.398 339.574C138.098 339.574 138.341 339.994 138.341 342.511ZM178.672 347.041C178.996 350.481 177.943 351.739 175.271 350.984C173.408 350.481 173.165 349.978 173.165 347.041C173.165 343.769 173.246 343.685 175.838 343.937C178.105 344.189 178.429 344.524 178.672 347.041Z" fill="black"/>
<path d="M145.63 343.35C145.63 344.524 147.088 344.944 155.348 345.867C157.778 346.118 161.017 346.538 162.475 346.79C164.662 347.209 165.067 347.041 165.067 345.699C165.067 344.273 164.176 343.937 157.454 343.098C147.331 341.756 145.63 341.84 145.63 343.35Z" fill="black"/>
<path d="M233.661 299.975C232.446 301.317 232.284 304.506 232.284 326.822V352.159L234.147 352.075C235.119 352.075 238.277 351.404 241.193 350.565L246.457 349.139V331.604C246.457 321.872 246.376 310.462 246.214 306.183L245.971 298.465H240.464C236.171 298.465 234.633 298.801 233.661 299.975ZM243.136 304.422C243.379 305.848 243.622 310.546 243.622 314.825V322.627L241.112 323.55C237.548 324.809 235.767 324.725 235.2 323.131C234.957 322.376 234.714 317.929 234.714 313.147C234.714 308.365 234.957 303.918 235.2 303.163C235.524 302.24 236.738 301.821 239.168 301.821C242.407 301.821 242.65 301.989 243.136 304.422Z" fill="black"/>
<path d="M284.52 337.309C282.09 339.826 280.066 344.692 280.066 348.132C280.066 348.971 279.418 349.894 278.689 350.313C276.907 351.32 258.038 356.606 236.738 362.143C227.83 364.408 219.084 366.925 217.221 367.512L213.901 368.771L212.848 365.75C209.446 355.934 199.971 356.773 194.788 367.177C193.573 369.693 192.116 372.043 191.549 372.462C190.01 373.469 181.021 373.217 170.331 371.875C164.986 371.12 158.102 370.365 155.105 370.029L149.598 369.526L150.084 372.798C150.408 374.559 151.056 376.489 151.623 377.076C154.377 380.013 172.355 383.201 186.852 383.285C192.44 383.285 198.513 383.369 200.295 383.369C202.32 383.369 206.207 382.194 210.418 380.264C216.249 377.664 232.041 372.882 273.182 361.388C284.034 358.367 293.347 355.347 295.048 354.424C295.939 353.921 296.91 353.501 297.315 353.417C297.639 353.417 298.611 352.243 299.502 350.901C300.393 349.474 301.122 348.803 301.122 349.223C301.122 349.726 300.636 350.649 300.15 351.32C299.259 352.327 299.34 352.327 300.555 351.404C302.174 350.145 302.417 346.286 300.96 346.286C300.231 346.286 300.312 345.951 301.122 345.447C302.174 344.692 302.174 344.608 301.122 344.524C300.474 344.44 299.502 344.44 298.935 344.524C298.368 344.608 297.558 343.182 297.072 341.336C295.291 334.457 289.136 332.527 284.52 337.309ZM291.079 341.085C293.752 342.93 292.78 348.216 289.379 349.81C286.787 350.984 284.925 349.474 284.925 346.118C284.925 341.42 288.002 338.903 291.079 341.085ZM207.179 366.338C208.394 368.687 208.151 372.462 206.693 374.643C203.858 378.838 197.38 375.315 198.594 370.197C199.728 365.415 205.397 362.898 207.179 366.338Z" fill="black"/>
<path d="M415.797 341.001C411.423 345.699 400.733 360.549 400.733 361.975C400.733 363.905 403.001 367.848 404.378 368.435C408.832 370.197 410.695 368.519 420.494 354.844C427.216 345.363 427.944 342.846 424.786 339.742C421.951 336.974 419.198 337.393 415.797 341.001Z" fill="black"/>
<path d="M712.182 295H700.909C700.242 291.758 699.076 288.909 697.409 286.455C695.773 284 693.773 281.939 691.409 280.273C689.076 278.576 686.485 277.303 683.636 276.455C680.788 275.606 677.818 275.182 674.727 275.182C669.091 275.182 663.985 276.606 659.409 279.455C654.864 282.303 651.242 286.5 648.545 292.045C645.879 297.591 644.545 304.394 644.545 312.455C644.545 320.515 645.879 327.318 648.545 332.864C651.242 338.409 654.864 342.606 659.409 345.455C663.985 348.303 669.091 349.727 674.727 349.727C677.818 349.727 680.788 349.303 683.636 348.455C686.485 347.606 689.076 346.348 691.409 344.682C693.773 342.985 695.773 340.909 697.409 338.455C699.076 335.97 700.242 333.121 700.909 329.909H712.182C711.333 334.667 709.788 338.924 707.545 342.682C705.303 346.439 702.515 349.636 699.182 352.273C695.848 354.879 692.106 356.864 687.955 358.227C683.833 359.591 679.424 360.273 674.727 360.273C666.788 360.273 659.727 358.333 653.545 354.455C647.364 350.576 642.5 345.061 638.955 337.909C635.409 330.758 633.636 322.273 633.636 312.455C633.636 302.636 635.409 294.152 638.955 287C642.5 279.848 647.364 274.333 653.545 270.455C659.727 266.576 666.788 264.636 674.727 264.636C679.424 264.636 683.833 265.318 687.955 266.682C692.106 268.045 695.848 270.045 699.182 272.682C702.515 275.288 705.303 278.47 707.545 282.227C709.788 285.955 711.333 290.212 712.182 295ZM749.489 360.636C745.064 360.636 741.049 359.803 737.443 358.136C733.837 356.439 730.973 354 728.852 350.818C726.731 347.606 725.67 343.727 725.67 339.182C725.67 335.182 726.458 331.939 728.034 329.455C729.61 326.939 731.716 324.97 734.352 323.545C736.989 322.121 739.898 321.061 743.08 320.364C746.292 319.636 749.519 319.061 752.761 318.636C757.004 318.091 760.443 317.682 763.08 317.409C765.746 317.106 767.686 316.606 768.898 315.909C770.14 315.212 770.761 314 770.761 312.273V311.909C770.761 307.424 769.534 303.939 767.08 301.455C764.655 298.97 760.973 297.727 756.034 297.727C750.913 297.727 746.898 298.848 743.989 301.091C741.08 303.333 739.034 305.727 737.852 308.273L727.67 304.636C729.489 300.394 731.913 297.091 734.943 294.727C738.004 292.333 741.337 290.667 744.943 289.727C748.58 288.758 752.155 288.273 755.67 288.273C757.913 288.273 760.489 288.545 763.398 289.091C766.337 289.606 769.17 290.682 771.898 292.318C774.655 293.955 776.943 296.424 778.761 299.727C780.58 303.03 781.489 307.455 781.489 313V359H770.761V349.545H770.216C769.489 351.061 768.277 352.682 766.58 354.409C764.883 356.136 762.625 357.606 759.807 358.818C756.989 360.03 753.549 360.636 749.489 360.636ZM751.125 351C755.367 351 758.943 350.167 761.852 348.5C764.792 346.833 767.004 344.682 768.489 342.045C770.004 339.409 770.761 336.636 770.761 333.727V323.909C770.307 324.455 769.307 324.955 767.761 325.409C766.246 325.833 764.489 326.212 762.489 326.545C760.519 326.848 758.595 327.121 756.716 327.364C754.867 327.576 753.367 327.758 752.216 327.909C749.428 328.273 746.822 328.864 744.398 329.682C742.004 330.47 740.064 331.667 738.58 333.273C737.125 334.848 736.398 337 736.398 339.727C736.398 343.455 737.777 346.273 740.534 348.182C743.322 350.061 746.852 351 751.125 351ZM801.068 359V289.182H811.432V300.091H812.341C813.795 296.364 816.144 293.47 819.386 291.409C822.629 289.318 826.523 288.273 831.068 288.273C835.674 288.273 839.508 289.318 842.568 291.409C845.659 293.47 848.068 296.364 849.795 300.091H850.523C852.311 296.485 854.992 293.621 858.568 291.5C862.144 289.348 866.432 288.273 871.432 288.273C877.674 288.273 882.78 290.227 886.75 294.136C890.72 298.015 892.705 304.061 892.705 312.273V359H881.977V312.273C881.977 307.121 880.568 303.439 877.75 301.227C874.932 299.015 871.614 297.909 867.795 297.909C862.886 297.909 859.083 299.394 856.386 302.364C853.689 305.303 852.341 309.03 852.341 313.545V359H841.432V311.182C841.432 307.212 840.144 304.015 837.568 301.591C834.992 299.136 831.674 297.909 827.614 297.909C824.826 297.909 822.22 298.652 819.795 300.136C817.402 301.621 815.462 303.682 813.977 306.318C812.523 308.924 811.795 311.939 811.795 315.364V359H801.068ZM912.318 385.182V289.182H922.682V300.273H923.955C924.742 299.061 925.833 297.515 927.227 295.636C928.652 293.727 930.682 292.03 933.318 290.545C935.985 289.03 939.591 288.273 944.136 288.273C950.015 288.273 955.197 289.742 959.682 292.682C964.167 295.621 967.667 299.788 970.182 305.182C972.697 310.576 973.955 316.939 973.955 324.273C973.955 331.667 972.697 338.076 970.182 343.5C967.667 348.894 964.182 353.076 959.727 356.045C955.273 358.985 950.136 360.455 944.318 360.455C939.833 360.455 936.242 359.712 933.545 358.227C930.848 356.712 928.773 355 927.318 353.091C925.864 351.152 924.742 349.545 923.955 348.273H923.045V385.182H912.318ZM922.864 324.091C922.864 329.364 923.636 334.015 925.182 338.045C926.727 342.045 928.985 345.182 931.955 347.455C934.924 349.697 938.561 350.818 942.864 350.818C947.348 350.818 951.091 349.636 954.091 347.273C957.121 344.879 959.394 341.667 960.909 337.636C962.455 333.576 963.227 329.061 963.227 324.091C963.227 319.182 962.47 314.758 960.955 310.818C959.47 306.848 957.212 303.712 954.182 301.409C951.182 299.076 947.409 297.909 942.864 297.909C938.5 297.909 934.833 299.015 931.864 301.227C928.894 303.409 926.652 306.47 925.136 310.409C923.621 314.318 922.864 318.879 922.864 324.091ZM1019.59 360.455C1012.86 360.455 1007.06 358.97 1002.18 356C997.333 353 993.591 348.818 990.955 343.455C988.348 338.061 987.045 331.788 987.045 324.636C987.045 317.485 988.348 311.182 990.955 305.727C993.591 300.242 997.258 295.97 1001.95 292.909C1006.68 289.818 1012.2 288.273 1018.5 288.273C1022.14 288.273 1025.73 288.879 1029.27 290.091C1032.82 291.303 1036.05 293.273 1038.95 296C1041.86 298.697 1044.18 302.273 1045.91 306.727C1047.64 311.182 1048.5 316.667 1048.5 323.182V327.727H994.682V318.455H1037.59C1037.59 314.515 1036.8 311 1035.23 307.909C1033.68 304.818 1031.47 302.379 1028.59 300.591C1025.74 298.803 1022.38 297.909 1018.5 297.909C1014.23 297.909 1010.53 298.97 1007.41 301.091C1004.32 303.182 1001.94 305.909 1000.27 309.273C998.606 312.636 997.773 316.242 997.773 320.091V326.273C997.773 331.545 998.682 336.015 1000.5 339.682C1002.35 343.318 1004.91 346.091 1008.18 348C1011.45 349.879 1015.26 350.818 1019.59 350.818C1022.41 350.818 1024.95 350.424 1027.23 349.636C1029.53 348.818 1031.52 347.606 1033.18 346C1034.85 344.364 1036.14 342.333 1037.05 339.909L1047.41 342.818C1046.32 346.333 1044.48 349.424 1041.91 352.091C1039.33 354.727 1036.15 356.788 1032.36 358.273C1028.58 359.727 1024.32 360.455 1019.59 360.455ZM1064.82 359V289.182H1075.18V299.727H1075.91C1077.18 296.273 1079.48 293.47 1082.82 291.318C1086.15 289.167 1089.91 288.091 1094.09 288.091C1094.88 288.091 1095.86 288.106 1097.05 288.136C1098.23 288.167 1099.12 288.212 1099.73 288.273V299.182C1099.36 299.091 1098.53 298.955 1097.23 298.773C1095.95 298.561 1094.61 298.455 1093.18 298.455C1089.79 298.455 1086.76 299.167 1084.09 300.591C1081.45 301.985 1079.36 303.924 1077.82 306.409C1076.3 308.864 1075.55 311.667 1075.55 314.818V359H1064.82ZM1161.9 304.818L1152.26 307.545C1151.66 305.939 1150.76 304.379 1149.58 302.864C1148.43 301.318 1146.85 300.045 1144.85 299.045C1142.85 298.045 1140.29 297.545 1137.17 297.545C1132.9 297.545 1129.34 298.53 1126.49 300.5C1123.67 302.439 1122.26 304.909 1122.26 307.909C1122.26 310.576 1123.23 312.682 1125.17 314.227C1127.11 315.773 1130.14 317.061 1134.26 318.091L1144.62 320.636C1150.87 322.152 1155.52 324.47 1158.58 327.591C1161.64 330.682 1163.17 334.667 1163.17 339.545C1163.17 343.545 1162.02 347.121 1159.72 350.273C1157.44 353.424 1154.26 355.909 1150.17 357.727C1146.08 359.545 1141.32 360.455 1135.9 360.455C1128.78 360.455 1122.88 358.909 1118.22 355.818C1113.55 352.727 1110.59 348.212 1109.35 342.273L1119.53 339.727C1120.5 343.485 1122.34 346.303 1125.03 348.182C1127.76 350.061 1131.32 351 1135.72 351C1140.72 351 1144.69 349.939 1147.62 347.818C1150.59 345.667 1152.08 343.091 1152.08 340.091C1152.08 337.667 1151.23 335.636 1149.53 334C1147.84 332.333 1145.23 331.091 1141.72 330.273L1130.08 327.545C1123.69 326.03 1118.99 323.682 1115.99 320.5C1113.02 317.288 1111.53 313.273 1111.53 308.455C1111.53 304.515 1112.64 301.03 1114.85 298C1117.09 294.97 1120.14 292.591 1123.99 290.864C1127.87 289.136 1132.26 288.273 1137.17 288.273C1144.08 288.273 1149.5 289.788 1153.44 292.818C1157.41 295.848 1160.23 299.848 1161.9 304.818ZM1211.68 275.909V265.909H1281.5V275.909H1252.23V359H1240.95V275.909H1211.68ZM1290.19 359V289.182H1300.56V299.727H1301.28C1302.56 296.273 1304.86 293.47 1308.19 291.318C1311.53 289.167 1315.28 288.091 1319.47 288.091C1320.25 288.091 1321.24 288.106 1322.42 288.136C1323.6 288.167 1324.5 288.212 1325.1 288.273V299.182C1324.74 299.091 1323.91 298.955 1322.6 298.773C1321.33 298.561 1319.98 298.455 1318.56 298.455C1315.16 298.455 1312.13 299.167 1309.47 300.591C1306.83 301.985 1304.74 303.924 1303.19 306.409C1301.68 308.864 1300.92 311.667 1300.92 314.818V359H1290.19ZM1358.36 360.636C1353.94 360.636 1349.92 359.803 1346.32 358.136C1342.71 356.439 1339.85 354 1337.73 350.818C1335.61 347.606 1334.55 343.727 1334.55 339.182C1334.55 335.182 1335.33 331.939 1336.91 329.455C1338.48 326.939 1340.59 324.97 1343.23 323.545C1345.86 322.121 1348.77 321.061 1351.95 320.364C1355.17 319.636 1358.39 319.061 1361.64 318.636C1365.88 318.091 1369.32 317.682 1371.95 317.409C1374.62 317.106 1376.56 316.606 1377.77 315.909C1379.02 315.212 1379.64 314 1379.64 312.273V311.909C1379.64 307.424 1378.41 303.939 1375.95 301.455C1373.53 298.97 1369.85 297.727 1364.91 297.727C1359.79 297.727 1355.77 298.848 1352.86 301.091C1349.95 303.333 1347.91 305.727 1346.73 308.273L1336.55 304.636C1338.36 300.394 1340.79 297.091 1343.82 294.727C1346.88 292.333 1350.21 290.667 1353.82 289.727C1357.45 288.758 1361.03 288.273 1364.55 288.273C1366.79 288.273 1369.36 288.545 1372.27 289.091C1375.21 289.606 1378.05 290.682 1380.77 292.318C1383.53 293.955 1385.82 296.424 1387.64 299.727C1389.45 303.03 1390.36 307.455 1390.36 313V359H1379.64V349.545H1379.09C1378.36 351.061 1377.15 352.682 1375.45 354.409C1373.76 356.136 1371.5 357.606 1368.68 358.818C1365.86 360.03 1362.42 360.636 1358.36 360.636ZM1360 351C1364.24 351 1367.82 350.167 1370.73 348.5C1373.67 346.833 1375.88 344.682 1377.36 342.045C1378.88 339.409 1379.64 336.636 1379.64 333.727V323.909C1379.18 324.455 1378.18 324.955 1376.64 325.409C1375.12 325.833 1373.36 326.212 1371.36 326.545C1369.39 326.848 1367.47 327.121 1365.59 327.364C1363.74 327.576 1362.24 327.758 1361.09 327.909C1358.3 328.273 1355.7 328.864 1353.27 329.682C1350.88 330.47 1348.94 331.667 1347.45 333.273C1346 334.848 1345.27 337 1345.27 339.727C1345.27 343.455 1346.65 346.273 1349.41 348.182C1352.2 350.061 1355.73 351 1360 351ZM1438.31 360.455C1431.76 360.455 1426.13 358.909 1421.4 355.818C1416.67 352.727 1413.03 348.47 1410.49 343.045C1407.94 337.621 1406.67 331.424 1406.67 324.455C1406.67 317.364 1407.97 311.106 1410.58 305.682C1413.22 300.227 1416.88 295.97 1421.58 292.909C1426.31 289.818 1431.82 288.273 1438.12 288.273C1443.03 288.273 1447.46 289.182 1451.4 291C1455.34 292.818 1458.56 295.364 1461.08 298.636C1463.59 301.909 1465.16 305.727 1465.76 310.091H1455.03C1454.22 306.909 1452.4 304.091 1449.58 301.636C1446.79 299.152 1443.03 297.909 1438.31 297.909C1434.13 297.909 1430.46 299 1427.31 301.182C1424.19 303.333 1421.75 306.379 1419.99 310.318C1418.26 314.227 1417.4 318.818 1417.4 324.091C1417.4 329.485 1418.25 334.182 1419.94 338.182C1421.67 342.182 1424.09 345.288 1427.22 347.5C1430.37 349.712 1434.06 350.818 1438.31 350.818C1441.09 350.818 1443.62 350.333 1445.9 349.364C1448.17 348.394 1450.09 347 1451.67 345.182C1453.25 343.364 1454.37 341.182 1455.03 338.636H1465.76C1465.16 342.758 1463.66 346.47 1461.26 349.773C1458.9 353.045 1455.76 355.652 1451.85 357.591C1447.97 359.5 1443.46 360.455 1438.31 360.455ZM1491.44 333.545L1491.26 320.273H1493.44L1523.99 289.182H1537.26L1504.72 322.091H1503.81L1491.44 333.545ZM1481.44 359V265.909H1492.17V359H1481.44ZM1525.81 359L1498.53 324.455L1506.17 317L1539.44 359H1525.81ZM1600.52 304.818L1590.89 307.545C1590.28 305.939 1589.39 304.379 1588.2 302.864C1587.05 301.318 1585.48 300.045 1583.48 299.045C1581.48 298.045 1578.92 297.545 1575.8 297.545C1571.52 297.545 1567.96 298.53 1565.11 300.5C1562.3 302.439 1560.89 304.909 1560.89 307.909C1560.89 310.576 1561.86 312.682 1563.8 314.227C1565.73 315.773 1568.77 317.061 1572.89 318.091L1583.25 320.636C1589.49 322.152 1594.14 324.47 1597.2 327.591C1600.27 330.682 1601.8 334.667 1601.8 339.545C1601.8 343.545 1600.64 347.121 1598.34 350.273C1596.07 353.424 1592.89 355.909 1588.8 357.727C1584.7 359.545 1579.95 360.455 1574.52 360.455C1567.4 360.455 1561.51 358.909 1556.84 355.818C1552.17 352.727 1549.22 348.212 1547.98 342.273L1558.16 339.727C1559.13 343.485 1560.96 346.303 1563.66 348.182C1566.39 350.061 1569.95 351 1574.34 351C1579.34 351 1583.31 349.939 1586.25 347.818C1589.22 345.667 1590.7 343.091 1590.7 340.091C1590.7 337.667 1589.86 335.636 1588.16 334C1586.46 332.333 1583.86 331.091 1580.34 330.273L1568.7 327.545C1562.31 326.03 1557.61 323.682 1554.61 320.5C1551.64 317.288 1550.16 313.273 1550.16 308.455C1550.16 304.515 1551.27 301.03 1553.48 298C1555.72 294.97 1558.77 292.591 1562.61 290.864C1566.49 289.136 1570.89 288.273 1575.8 288.273C1582.7 288.273 1588.13 289.788 1592.07 292.818C1596.04 295.848 1598.86 299.848 1600.52 304.818Z" fill="black"/>
</svg>
